<svg xmlns="http://www.w3.org/2000/svg" viewBox="0 0 80 40"><defs><style>.cls-1{fill:#ab987a;}.cls-2{fill:#f6f6f6;}.cls-3{fill:#fe533d;}</style></defs><title>IG Buttons</title><g id="Layer_2" data-name="Layer 2"><g id="Layer_1-2" data-name="Layer 1"><circle class="cls-1" cx="20" cy="20" r="20"/><path class="cls-2" d="M25.8,16.13h.39c2.34,0,4.67,0,7,0,.34,0,.43.1.43.43,0,4,0,8,0,12a5.35,5.35,0,0,1-4.42,5.09,6.56,6.56,0,0,1-.93.07H11.65a5.32,5.32,0,0,1-5.21-4.51,5.12,5.12,0,0,1-.06-.73q0-5.94,0-11.88c0-.44,0-.44.44-.44h7.35a7.08,7.08,0,0,0-1,5.68,7,7,0,0,0,2.35,3.75,7.09,7.09,0,0,0,8.55.33,7.17,7.17,0,0,0,2.31-2.75A7,7,0,0,0,27,19.57,7.16,7.16,0,0,0,25.8,16.13Z"/><path class="cls-2" d="M10.45,6.5c0,.15,0,.27,0,.39,0,1.94,0,3.87,0,5.81,0,.33.09.44.43.44.78,0,.78,0,.78-.78,0-1.88,0-3.76,0-5.64,0-.3.08-.42.39-.4s.29.1.28.31c0,.44,0,.89,0,1.33,0,1.58,0,3.16,0,4.74,0,.32.07.46.42.44.93,0,.78.1.78-.77,0-1.88,0-3.76,0-5.64,0-.33.1-.41.42-.41,4.79,0,9.59,0,14.38,0a5.36,5.36,0,0,1,5.16,4.1,5.63,5.63,0,0,1,.14,1.19c0,1.07,0,2.14,0,3.2,0,.3-.07.41-.39.41l-7.91,0a.87.87,0,0,1-.52-.21,7.06,7.06,0,0,0-4.15-1.85A6.91,6.91,0,0,0,15.2,15a.86.86,0,0,1-.62.25q-3.89,0-7.78,0c-.34,0-.44-.09-.43-.43,0-1.11,0-2.23,0-3.34a5.19,5.19,0,0,1,2-4l.16-.08c0,.15,0,.27,0,.39,0,1.66,0,3.32,0,5,0,.3.08.41.39.4.9,0,.81.12.81-.8,0-1.72,0-3.45,0-5.17C9.78,6.61,9.81,6.58,10.45,6.5Zm18.4,6.76h1.4a.89.89,0,0,0,1-.94q0-1.45,0-2.9a.94.94,0,0,0-1-1H27.48a.93.93,0,0,0-1,.92q0,1.5,0,3a.86.86,0,0,0,1,.88Z"/><path class="cls-2" d="M14.65,20.12a5.34,5.34,0,1,1,5.22,5.36A5.35,5.35,0,0,1,14.65,20.12Zm1.34,0a4,4,0,0,0,3.91,4.05A4.12,4.12,0,0,0,24,20.27a4,4,0,0,0-4-4.18A3.94,3.94,0,0,0,16,20.1Z"/><circle class="cls-3" cx="60" cy="20" r="20"/><path class="cls-2" d="M65.81,16h.39c2.34,0,4.67,0,7,0,.34,0,.43.1.43.43,0,4,0,8,0,12a5.35,5.35,0,0,1-4.42,5.09,6.56,6.56,0,0,1-.93.07H51.66A5.32,5.32,0,0,1,46.45,29a5.12,5.12,0,0,1-.06-.73q0-5.94,0-11.88c0-.44,0-.44.44-.44h7.35a7.08,7.08,0,0,0-1,5.68,7,7,0,0,0,2.35,3.75,7.09,7.09,0,0,0,8.55.33A7.17,7.17,0,0,0,66.37,23,7,7,0,0,0,67,19.43,7.16,7.16,0,0,0,65.81,16Z"/><path class="cls-2" d="M50.47,6.36c0,.15,0,.27,0,.39,0,1.94,0,3.87,0,5.81,0,.33.09.44.43.44.78,0,.78,0,.78-.78,0-1.88,0-3.76,0-5.64,0-.3.08-.42.39-.4s.29.1.28.31c0,.44,0,.89,0,1.33,0,1.58,0,3.16,0,4.74,0,.32.07.46.42.44.93,0,.78.1.78-.77,0-1.88,0-3.76,0-5.64,0-.33.1-.41.42-.41,4.79,0,9.59,0,14.38,0a5.36,5.36,0,0,1,5.16,4.1,5.63,5.63,0,0,1,.14,1.19c0,1.07,0,2.14,0,3.2,0,.3-.07.41-.39.41l-7.91,0a.87.87,0,0,1-.52-.21A7.06,7.06,0,0,0,60.66,13a6.91,6.91,0,0,0-5.45,1.83.86.86,0,0,1-.62.25q-3.89,0-7.78,0c-.34,0-.44-.09-.43-.43,0-1.11,0-2.23,0-3.34a5.19,5.19,0,0,1,2-4l.16-.08c0,.15,0,.27,0,.39,0,1.66,0,3.32,0,5,0,.3.08.41.39.4.9,0,.81.12.81-.8,0-1.72,0-3.45,0-5.17C49.79,6.47,49.83,6.44,50.47,6.36Zm18.4,6.76h1.4a.89.89,0,0,0,1-.94q0-1.45,0-2.9a.94.94,0,0,0-1-1H67.5a.93.93,0,0,0-1,.92q0,1.5,0,3a.86.86,0,0,0,1,.88Z"/><path class="cls-2" d="M54.66,20a5.34,5.34,0,1,1,5.22,5.36A5.35,5.35,0,0,1,54.66,20ZM56,20A4,4,0,0,0,59.91,24,4.12,4.12,0,0,0,64,20.13,4,4,0,0,0,60,16,3.94,3.94,0,0,0,56,20Z"/></g></g></svg>