<svg xmlns="http://www.w3.org/2000/svg" viewBox="0 0 80 40"><defs><style>.cls-1{fill:#fe533d;}.cls-2{fill:#f6f6f6;}.cls-3{fill:#ab987a;}</style></defs><title>Twitter Buttons</title><g id="Layer_2" data-name="Layer 2"><g id="Layer_1-2" data-name="Layer 1"><circle class="cls-1" cx="60" cy="20" r="20"/><path class="cls-2" d="M45.3,30.07a12.82,12.82,0,0,0,9.17-2.5l-.38,0a6.26,6.26,0,0,1-3.51-1.42,6,6,0,0,1-1.86-2.62c-.06-.16-.05-.16.12-.13a6.45,6.45,0,0,0,2.48-.09l.13,0-.39-.1a6.25,6.25,0,0,1-2.63-1.44,6,6,0,0,1-1.64-2.48,5.46,5.46,0,0,1-.31-1.51c0-.13,0-.25,0-.38s0-.12.11-.07a6.28,6.28,0,0,0,2,.63,3.41,3.41,0,0,0,.71.06l-.47-.36A5.93,5.93,0,0,1,46.63,14a5.81,5.81,0,0,1,.62-3.86c.13-.25.13-.25.32,0a18.17,18.17,0,0,0,1.88,1.85,17.51,17.51,0,0,0,2.89,2,17.9,17.9,0,0,0,5.27,1.93,17.51,17.51,0,0,0,2.41.31c.27,0,.26,0,.22-.24a5.81,5.81,0,0,1,1.35-5,6.05,6.05,0,0,1,3.79-2.11,6.3,6.3,0,0,1,5,1.27,5,5,0,0,1,.55.49.18.18,0,0,0,.18.05,13,13,0,0,0,2.72-.87q.53-.24,1-.52a.16.16,0,0,1,.09,0,6.13,6.13,0,0,1-2.63,3.29,12.42,12.42,0,0,0,3.45-.91c0,.06,0,.09,0,.12a12.48,12.48,0,0,1-1.95,2.15,12,12,0,0,1-1,.78.21.21,0,0,0-.1.2c0,.21,0,.42,0,.64a17,17,0,0,1-.82,5.1,17.91,17.91,0,0,1-1.38,3.2A17.65,17.65,0,0,1,68.22,27a16.85,16.85,0,0,1-3.53,3,17.2,17.2,0,0,1-6.37,2.45,19.55,19.55,0,0,1-2.25.26c-.53,0-1.06.05-1.58,0A18.66,18.66,0,0,1,49.67,32a18.25,18.25,0,0,1-4.25-1.88A.23.23,0,0,1,45.3,30.07Z"/><circle class="cls-3" cx="20" cy="20" r="20"/><path class="cls-2" d="M5.3,30.07a12.82,12.82,0,0,0,9.17-2.5l-.38,0a6.26,6.26,0,0,1-3.51-1.42,6,6,0,0,1-1.86-2.62c-.06-.16-.05-.16.12-.13a6.45,6.45,0,0,0,2.48-.09l.13,0-.39-.1A6.25,6.25,0,0,1,8.44,21.7,6,6,0,0,1,6.8,19.22a5.46,5.46,0,0,1-.31-1.51c0-.13,0-.25,0-.38s0-.12.11-.07a6.28,6.28,0,0,0,2,.63,3.41,3.41,0,0,0,.71.06l-.47-.36A5.93,5.93,0,0,1,6.62,14a5.81,5.81,0,0,1,.62-3.86c.13-.25.13-.25.32,0a18.17,18.17,0,0,0,1.88,1.85,17.51,17.51,0,0,0,2.89,2,17.9,17.9,0,0,0,5.27,1.93,17.51,17.51,0,0,0,2.41.31c.27,0,.26,0,.22-.24a5.81,5.81,0,0,1,1.35-5,6.05,6.05,0,0,1,3.79-2.11,6.3,6.3,0,0,1,5,1.27,5,5,0,0,1,.55.49.18.18,0,0,0,.18.05,13,13,0,0,0,2.72-.87q.53-.24,1-.52a.16.16,0,0,1,.09,0,6.13,6.13,0,0,1-2.63,3.29,12.42,12.42,0,0,0,3.45-.91c0,.06,0,.09,0,.12a12.48,12.48,0,0,1-1.95,2.15,12,12,0,0,1-1,.78.21.21,0,0,0-.1.2c0,.21,0,.42,0,.64a17,17,0,0,1-.82,5.1,17.91,17.91,0,0,1-1.38,3.2A17.65,17.65,0,0,1,28.21,27a16.85,16.85,0,0,1-3.53,3,17.2,17.2,0,0,1-6.37,2.45,19.55,19.55,0,0,1-2.25.26c-.53,0-1.06.05-1.58,0A18.66,18.66,0,0,1,9.67,32a18.25,18.25,0,0,1-4.25-1.88A.23.23,0,0,1,5.3,30.07Z"/></g></g></svg>