<svg xmlns="http://www.w3.org/2000/svg" viewBox="0 0 80 40"><defs><style>.cls-1{fill:#fe533d;}.cls-2{fill:#f6f6f6;}.cls-3{fill:#ab987a;}</style></defs><title>YouTube Buttons</title><g id="Layer_2" data-name="Layer 2"><g id="Layer_1-2" data-name="Layer 1"><circle class="cls-1" cx="60" cy="20" r="20"/><g id="YSq4cc.tif"><path class="cls-2" d="M58.83,9.84h2.34l.16,0,2.16,0c.93,0,1.86,0,2.79.06,1.08,0,2.16.08,3.24.15a10.8,10.8,0,0,1,1.5.17,3.4,3.4,0,0,1,2.36,1.63,6,6,0,0,1,.74,2.29,34.11,34.11,0,0,1,.29,4.08c0,1.26,0,2.51,0,3.77,0,1-.12,1.93-.18,2.9a9,9,0,0,1-.43,2.22,3.57,3.57,0,0,1-3.2,2.6c-.72.09-1.45.13-2.18.16q-2,.09-4,.14c-1.1,0-2.19,0-3.29,0l-.14,0H59.43l-.11,0-2,0L54.62,30C53.32,30,52,30,50.7,29.89a12.17,12.17,0,0,1-2-.28A3.16,3.16,0,0,1,46.59,28a6.34,6.34,0,0,1-.71-2.26,34.64,34.64,0,0,1-.29-4.06c0-1.22,0-2.45,0-3.67,0-1,.12-2,.18-2.93a9.36,9.36,0,0,1,.45-2.34,3.54,3.54,0,0,1,2.47-2.42,7.87,7.87,0,0,1,1.81-.23c1-.05,1.91-.1,2.86-.13,1.11,0,2.23-.06,3.34-.09l2,0Zm6,9.86L57,15.64v8.11Z"/><path class="cls-1" d="M64.82,19.7l-7.79,4V15.64Z"/></g><circle class="cls-3" cx="20" cy="20" r="20"/><path class="cls-2" d="M18.82,9.84h2.34l.16,0,2.16,0c.93,0,1.86,0,2.79.06,1.08,0,2.16.08,3.24.15a10.8,10.8,0,0,1,1.5.17,3.4,3.4,0,0,1,2.36,1.63,6,6,0,0,1,.74,2.29,34.11,34.11,0,0,1,.29,4.08c0,1.26,0,2.51,0,3.77,0,1-.12,1.93-.18,2.9a9,9,0,0,1-.43,2.22,3.57,3.57,0,0,1-3.2,2.6c-.72.09-1.45.13-2.18.16q-2,.09-4,.14c-1.1,0-2.19,0-3.29,0l-.14,0H19.41l-.11,0-2,0L14.61,30C13.3,30,12,30,10.69,29.89a12.17,12.17,0,0,1-2-.28A3.16,3.16,0,0,1,6.57,28a6.34,6.34,0,0,1-.71-2.26,34.64,34.64,0,0,1-.29-4.06c0-1.22,0-2.45,0-3.67,0-1,.12-2,.18-2.93a9.36,9.36,0,0,1,.45-2.34A3.54,3.54,0,0,1,8.7,10.34a7.87,7.87,0,0,1,1.81-.23c1-.05,1.91-.1,2.86-.13,1.11,0,2.23-.06,3.34-.09l2,0Zm6,9.86L17,15.64v8.11Z"/><path class="cls-3" d="M24.81,19.7l-7.79,4V15.64Z"/></g></g></svg>